<svg width="108" height="700" viewBox="0 0 108 700" fill="none" xmlns="http://www.w3.org/2000/svg">
<rect width="108" height="700" fill="black" fill-opacity="0.01"/>
<path d="M57.8232 60.3768C62.9459 60.4001 65.891 57.5488 65.8866 52.5778C65.891 45.2099 59.452 43.9809 54.6227 43.9901L54.6112 43.5279C57.6551 43.5386 62.8456 42.6537 62.8651 36.3319C62.8456 31.8877 60.3002 29.3315 55.5672 29.3367H52.9292V60.3768H57.8232ZM55.748 27.7585C62.7461 27.7585 66.5893 31.0518 66.6083 35.9777C66.5893 40.1464 63.8939 42.6537 61.0765 43.4474C66.3895 44.2267 69.6341 48.0611 69.6295 52.9308C69.6295 58.4827 65.4366 62.1699 57.9988 62.1699H45.8379L45.8457 61.6783H46.4772C48.2129 61.6783 49.6236 60.3168 49.6733 58.6189V31.297C49.6733 29.6015 48.2111 28.2449 46.4691 28.2449H45.8457L45.8379 27.7564L55.748 27.7585Z" fill="white"/>
<path d="M86 27.7519L85.9922 28.2435H85.3607C83.6178 28.2435 82.2028 29.6167 82.1642 31.3237V62.163C82.1642 67.674 78.1638 72 73.0718 72V71.5574C76.3413 70.4267 78.91 66.2485 78.9097 62.0247V31.3357C78.8767 29.6234 77.4592 28.2444 75.7119 28.2444H75.0804L75.0726 27.7532L86 27.7519Z" fill="white"/>
<path d="M32.5293 29.8387C32.5293 29.8387 37.6172 21.617 43.7037 24.6871C43.7037 24.6871 39.5668 31.6183 32.5293 29.8387Z" fill="white"/>
<path d="M37.474 47.6715L27.6654 38.7283C26.0932 37.2937 25.6562 35.4776 25.6562 34.1957C25.6562 31.1999 28.1173 28.5424 31.7952 28.5424C31.8316 28.5424 31.8664 28.5464 31.9024 28.547L32.9921 27.1353C32.5194 27.094 32.0581 27.0683 31.6333 27.0683C25.943 27.0683 22.8609 31.2327 22.8609 35.3763C22.8609 37.2793 23.5472 39.653 25.5664 41.4679L35.1269 50.2133C36.3744 51.3538 37.0858 52.8735 37.0858 54.7946C37.0858 58.7233 34.041 61.1828 30.397 61.3827C25.9552 61.6251 22.6987 58.3839 23.2003 53.318H22.7618C22.0016 55.5222 21.8126 58.6535 22.1847 60.1711C24.1461 62.169 28.1891 62.8574 30.635 62.8574C36.3753 62.8574 39.9811 59.102 39.9811 53.6645C39.9811 51.6789 39.4696 49.486 37.474 47.6715Z" fill="white"/>
<path d="M43.3333 358H64.6667C65.4 358 66 357.4 66 356.667C66 355.933 65.4 355.333 64.6667 355.333H43.3333C42.6 355.333 42 355.933 42 356.667C42 357.4 42.6 358 43.3333 358ZM43.3333 351.333H64.6667C65.4 351.333 66 350.733 66 350C66 349.267 65.4 348.667 64.6667 348.667H43.3333C42.6 348.667 42 349.267 42 350C42 350.733 42.6 351.333 43.3333 351.333ZM42 343.333C42 344.067 42.6 344.667 43.3333 344.667H64.6667C65.4 344.667 66 344.067 66 343.333C66 342.6 65.4 342 64.6667 342H43.3333C42.6 342 42 342.6 42 343.333Z" fill="white"/>
<path d="M55.9996 666.001V643.661L65.7596 653.421C66.5396 654.201 67.8196 654.201 68.5996 653.421C69.3796 652.641 69.3796 651.381 68.5996 650.601L55.4196 637.421C54.6396 636.641 53.3796 636.641 52.5996 637.421L39.4196 650.601C38.6396 651.381 38.6396 652.641 39.4196 653.421C40.1996 654.201 41.4596 654.201 42.2396 653.421L51.9996 643.661V666.001C51.9996 667.101 52.8996 668.001 53.9996 668.001C55.0996 668.001 55.9996 667.101 55.9996 666.001Z" fill="white"/>
<line x1="107.5" y1="700" x2="107.5" stroke="white"/>
</svg>
