<svg width="732" height="121" viewBox="0 0 732 121" fill="none" xmlns="http://www.w3.org/2000/svg">
<path d="M46.8573 8.39561C46.8573 7.15393 46.3907 6.09333 45.4574 5.2138C44.5241 4.28254 43.4261 3.79105 42.1634 3.73931H26.5168V50.2247C26.5717 51.5698 27.0933 52.708 28.0815 53.6393C29.1246 54.5706 30.3598 55.0362 31.7872 55.0362H32.8578V55.8122H14.8231V55.0362H15.8936C17.321 55.0362 18.5288 54.5706 19.517 53.6393C20.5601 52.708 21.1091 51.5957 21.164 50.3023V3.73931H5.51747C4.19987 3.79105 3.07441 4.28254 2.14111 5.2138C1.2627 6.09333 0.823503 7.15393 0.823503 8.39561V9.71489L0 9.79249V0.0142708C0.823503 0.324691 2.25091 0.635112 4.28222 0.945532C6.31352 1.25595 8.18013 1.41116 9.88204 1.41116H37.7164C40.4066 1.41116 42.63 1.23008 44.3868 0.867925C46.1985 0.454032 47.2965 0.169481 47.6808 0.0142708V9.79249L46.8573 9.71489V8.39561Z" fill="white"/>
<path d="M94.2911 55.0362C95.7185 55.0362 96.9263 54.5706 97.9145 53.6393C98.9576 52.708 99.5067 51.5698 99.5616 50.2247V30.125H65.8803V50.1471C65.8803 51.4922 66.4018 52.6563 67.4449 53.6393C68.488 54.5706 69.7233 55.0362 71.1507 55.0362H72.2212V55.8122H54.1865V55.0362H55.2571C56.6845 55.0362 57.8923 54.5706 58.8805 53.6393C59.9236 52.6563 60.4726 51.4922 60.5275 50.1471V7.07632C60.4726 5.73117 59.9236 4.59296 58.8805 3.66171C57.8923 2.73045 56.6845 2.26481 55.2571 2.26481H54.1865V1.48877H72.2212V2.26481H71.1507C69.7233 2.26481 68.488 2.73045 67.4449 3.66171C66.4567 4.59296 65.9352 5.73117 65.8803 7.07632V27.7969H99.5616V7.07632C99.5067 5.2138 98.6282 3.81692 96.9263 2.88566C96.1028 2.47176 95.2244 2.26481 94.2911 2.26481H93.2206V1.48877H111.255V2.26481H110.185C108.757 2.26481 107.522 2.75632 106.479 3.73931C105.491 4.67057 104.969 5.80878 104.914 7.15393V50.1471C104.969 51.4922 105.491 52.6563 106.479 53.6393C107.522 54.5706 108.757 55.0362 110.185 55.0362H111.255V55.8122H93.2206V55.0362H94.2911Z" fill="white"/>
<path d="M122.208 55.0362C123.635 55.0362 124.843 54.5706 125.831 53.6393C126.874 52.6563 127.423 51.4922 127.478 50.1471V6.6883C127.314 5.44662 126.737 4.41188 125.749 3.5841C124.761 2.70458 123.58 2.26481 122.208 2.26481H121.22L121.137 1.48877H145.266C146.968 1.48877 148.807 1.33355 150.783 1.02313C152.815 0.712715 154.242 0.402294 155.066 0.0918738V9.8701H154.242V8.47321C154.242 7.23153 153.775 6.17093 152.842 5.29141C151.964 4.41188 150.893 3.94626 149.631 3.89452H132.831V27.8745H146.748C147.846 27.8227 148.78 27.4347 149.548 26.7104C150.317 25.9861 150.701 25.0807 150.701 23.9942V22.9077H151.525V35.1693H150.701V34.0052C150.701 32.9705 150.317 32.091 149.548 31.3667C148.835 30.6424 147.929 30.2543 146.831 30.2026H132.831V53.4065H144.607C148.67 53.4065 151.772 52.5528 153.913 50.8455C156.054 49.1382 157.838 46.6031 159.266 43.2402H160.089L155.313 55.8122H121.137V55.0362H122.208Z" fill="white"/>
<path d="M195.911 52.6304C195.747 51.9061 195.664 50.5092 195.664 48.4398C195.664 46.3703 196.076 44.1715 196.9 41.8434H197.641C197.586 42.4125 197.558 42.9816 197.558 43.5507C197.558 46.7066 198.574 49.3452 200.605 51.4664C202.637 53.5358 205.327 54.5706 208.676 54.5706C212.134 54.5706 214.962 53.5876 217.158 51.6216C219.409 49.6556 220.534 47.1981 220.534 44.2491C220.534 41.2484 219.464 38.8168 217.322 36.9542L201.511 23.1406C198.547 20.5537 197.064 17.4237 197.064 13.7504C197.064 10.0771 198.354 6.94699 200.935 4.36016C203.57 1.72159 207.111 0.402301 211.558 0.402301C213.644 0.402301 216.005 0.660982 218.64 1.17835H221.852V10.7238H221.111C221.111 8.29214 220.205 6.35201 218.393 4.90339C216.636 3.45476 214.358 2.73045 211.558 2.73045C208.758 2.73045 206.397 3.60997 204.476 5.36902C202.609 7.12806 201.676 9.32687 201.676 11.9654C201.676 14.604 202.774 16.8804 204.97 18.7947L221.193 32.9188C223.938 35.2987 225.31 38.5581 225.31 42.697C225.31 46.8359 223.911 50.2505 221.111 52.9409C218.311 55.5794 214.577 56.8987 209.911 56.8987C207.495 56.8987 204.915 56.5366 202.17 55.8122C199.48 55.1397 197.394 54.0791 195.911 52.6304Z" fill="white"/>
<path d="M290.532 2.26481H289.214C288.061 2.26481 287.046 2.62697 286.167 3.35128C285.344 4.02386 284.905 4.87751 284.85 5.91225V36.6438C284.85 42.697 282.818 47.5861 278.756 51.3111C274.693 55.0362 269.286 56.8987 262.533 56.8987C255.78 56.8987 250.29 55.0621 246.063 51.3888C241.89 47.6637 239.804 42.7746 239.804 36.7214V6.14506C239.804 4.59296 239.09 3.45476 237.663 2.73044C237.004 2.42002 236.263 2.26481 235.44 2.26481H234.122V1.48877H250.839V2.26481H249.521C248.314 2.26481 247.298 2.62697 246.475 3.35128C245.651 4.02386 245.212 4.90338 245.157 5.98985V35.6349C245.157 41.2742 246.749 45.8271 249.933 49.2934C253.172 52.7598 257.482 54.493 262.862 54.493C268.242 54.493 272.607 52.8632 275.956 49.6038C279.305 46.2927 280.979 41.9727 280.979 36.6438V5.98985C280.924 4.90338 280.485 4.02386 279.662 3.35128C278.838 2.62697 277.823 2.26481 276.615 2.26481H275.297V1.48877H290.532V2.26481Z" fill="white"/>
<path d="M299.673 52.6304C299.508 51.9061 299.426 50.5092 299.426 48.4398C299.426 46.3703 299.838 44.1715 300.661 41.8434H301.402C301.347 42.4125 301.32 42.9816 301.32 43.5507C301.32 46.7066 302.336 49.3452 304.367 51.4664C306.398 53.5358 309.088 54.5706 312.437 54.5706C315.896 54.5706 318.723 53.5876 320.919 51.6216C323.17 49.6556 324.296 47.1981 324.296 44.2491C324.296 41.2484 323.225 38.8168 321.084 36.9542L305.273 23.1406C302.308 20.5537 300.826 17.4237 300.826 13.7504C300.826 10.0771 302.116 6.94699 304.696 4.36016C307.331 1.72159 310.872 0.402301 315.319 0.402301C317.406 0.402301 319.766 0.660982 322.402 1.17835H325.613V10.7238H324.872C324.872 8.29214 323.966 6.35201 322.154 4.90339C320.398 3.45476 318.119 2.73045 315.319 2.73045C312.519 2.73045 310.159 3.60997 308.237 5.36902C306.371 7.12806 305.437 9.32687 305.437 11.9654C305.437 14.604 306.535 16.8804 308.731 18.7947L324.954 32.9188C327.699 35.2987 329.072 38.5581 329.072 42.697C329.072 46.8359 327.672 50.2505 324.872 52.9409C322.072 55.5794 318.339 56.8987 313.672 56.8987C311.257 56.8987 308.676 56.5366 305.931 55.8122C303.241 55.1397 301.155 54.0791 299.673 52.6304Z" fill="white"/>
<path d="M382.27 8.39561C382.27 7.15393 381.804 6.09333 380.87 5.2138C379.937 4.28254 378.839 3.79105 377.576 3.73931H361.93V50.2247C361.985 51.5698 362.506 52.708 363.494 53.6393C364.537 54.5706 365.773 55.0362 367.2 55.0362H368.271V55.8122H350.236V55.0362H351.306C352.734 55.0362 353.942 54.5706 354.93 53.6393C355.973 52.708 356.522 51.5957 356.577 50.3023V3.73931H340.93C339.613 3.79105 338.487 4.28254 337.554 5.2138C336.676 6.09333 336.236 7.15393 336.236 8.39561V9.71489L335.413 9.79249V0.0142708C336.236 0.324691 337.664 0.635112 339.695 0.945532C341.726 1.25595 343.593 1.41116 345.295 1.41116H373.129C375.819 1.41116 378.043 1.23008 379.8 0.867925C381.611 0.454032 382.709 0.169481 383.094 0.0142708V9.79249L382.27 9.71489V8.39561Z" fill="white"/>
<path d="M445.021 55.0362C446.449 55.0362 447.656 54.5706 448.644 53.6393C449.688 52.6563 450.237 51.4922 450.292 50.1471V7.07632C450.237 5.73117 449.688 4.59296 448.644 3.66171C447.656 2.73045 446.449 2.26481 445.021 2.26481H443.951V1.48877H461.985V2.26481H460.915C459.487 2.26481 458.252 2.73045 457.209 3.66171C456.221 4.59296 455.699 5.73117 455.644 7.07632V50.1471C455.644 51.4922 456.166 52.6563 457.209 53.6393C458.252 54.5706 459.487 55.0362 460.915 55.0362H461.985V55.8122H443.951V55.0362H445.021Z" fill="white"/>
<path d="M530.912 2.2648C529.54 2.2648 528.36 2.73044 527.371 3.66169C526.383 4.54122 525.862 5.62769 525.807 6.9211V46.9653C525.807 49.966 525.999 52.8115 526.383 55.5018L526.548 56.8987H525.807L480.926 11.7326V50.3799C480.981 52.1907 481.832 53.5358 483.479 54.4153C484.247 54.8292 485.071 55.0362 485.949 55.0362H487.514V55.8122H470.55V55.0362H472.114C473.487 55.0362 474.667 54.5964 475.655 53.7169C476.644 52.7856 477.138 51.6474 477.138 50.3023V10.0253C477.138 6.86936 476.946 4.04972 476.561 1.56636L476.397 0.324679H477.22L522.101 45.4908V6.99871C522.046 5.65355 521.525 4.54122 520.536 3.66169C519.548 2.73044 518.368 2.2648 516.995 2.2648H515.431V1.48876H532.395V2.2648H530.912Z" fill="white"/>
<path d="M593.828 55.0362H594.487V55.8122H575.958V55.0362H576.699C577.852 55.0362 578.703 54.6999 579.252 54.0273C579.856 53.303 580.158 52.6304 580.158 52.0096C580.158 51.3888 580.048 50.7679 579.829 50.1471L574.558 36.9542H552.324L546.806 50.2247C546.587 50.8455 546.477 51.4664 546.477 52.0872C546.477 52.6563 546.751 53.303 547.3 54.0273C547.904 54.6999 548.783 55.0362 549.935 55.0362H550.677V55.8122H534.124V55.0362H534.865C536.238 55.0362 537.583 54.6223 538.901 53.7945C540.218 52.9667 541.289 51.7509 542.112 50.1471L560.723 8.39561C562.755 4.20494 563.77 1.54051 563.77 0.402301H564.511L586.581 50.1471C587.35 51.7509 588.393 52.9667 589.711 53.7945C591.028 54.6223 592.401 55.0362 593.828 55.0362ZM553.312 34.6261H573.57L563.688 9.7149L553.312 34.6261Z" fill="white"/>
<path d="M618.533 55.8122H598.44L598.522 55.0362H599.51C600.938 55.0362 602.146 54.5706 603.134 53.6393C604.177 52.708 604.726 51.5698 604.781 50.2247V7.07632C604.781 5.73117 604.259 4.59296 603.216 3.66171C602.173 2.73045 600.938 2.26481 599.51 2.26481H598.522L598.44 1.48877H614.827C620.482 1.48877 624.874 2.67871 628.004 5.05859C631.133 7.38674 632.698 10.5168 632.698 14.4488C632.698 17.553 631.819 20.1398 630.062 22.2093C628.306 24.227 626.164 25.5722 623.639 26.2447C627.976 26.8656 631.407 28.547 633.933 31.2891C636.458 34.0311 637.721 37.4975 637.721 41.6881C637.721 45.8271 636.019 49.2158 632.615 51.8544C629.266 54.493 624.572 55.8122 618.533 55.8122ZM610.133 53.0185H618.204C618.259 53.0185 618.314 53.0185 618.369 53.0185C622.541 53.0185 625.78 51.9579 628.086 49.8367C630.392 47.6637 631.545 44.6113 631.545 40.6793C631.545 38.4546 631.133 36.5145 630.309 34.8589C629.541 33.1516 628.553 31.8064 627.345 30.8234C624.161 28.3401 619.384 27.0984 613.016 27.0984C613.016 27.0984 612.988 27.0984 612.933 27.0984V26.4C612.988 26.4 613.235 26.4 613.675 26.4C614.169 26.4 614.855 26.3482 615.733 26.2447C616.612 26.1413 617.6 25.9602 618.698 25.7015C619.796 25.4428 620.784 25.0289 621.663 24.4598C622.541 23.8907 623.365 23.2182 624.133 22.4421C625.725 20.7348 626.521 18.1997 626.521 14.8368C626.521 11.4222 625.478 8.75776 623.392 6.84351C621.361 4.92925 618.396 3.97212 614.498 3.97212H610.133V53.0185Z" fill="white"/>
<path d="M646.944 55.0362C648.372 55.0362 649.579 54.5706 650.568 53.6393C651.611 52.6563 652.16 51.4922 652.214 50.1471V7.15393C652.16 5.80878 651.611 4.67057 650.568 3.73931C649.579 2.75632 648.372 2.26481 646.944 2.26481H645.874V1.48877H663.908V2.26481H662.838C660.861 2.26481 659.352 3.06673 658.308 4.67057C657.814 5.44662 657.567 6.27441 657.567 7.15393V53.4065H669.343C673.406 53.4065 676.508 52.5528 678.649 50.8455C680.79 49.1382 682.574 46.6031 684.002 43.2402H684.825L680.049 55.8122H645.874V55.0362H646.944Z" fill="white"/>
<path d="M691.99 55.0362C693.417 55.0362 694.625 54.5706 695.613 53.6393C696.656 52.6563 697.205 51.4922 697.26 50.1471V6.6883C697.095 5.44662 696.519 4.41188 695.531 3.5841C694.543 2.70458 693.362 2.26481 691.99 2.26481H691.002L690.919 1.48877H715.048C716.75 1.48877 718.589 1.33355 720.565 1.02313C722.597 0.712715 724.024 0.402294 724.848 0.0918738V9.8701H724.024V8.47321C724.024 7.23153 723.557 6.17093 722.624 5.29141C721.746 4.41188 720.675 3.94626 719.412 3.89452H702.613V27.8745H716.53C717.628 27.8227 718.561 27.4347 719.33 26.7104C720.099 25.9861 720.483 25.0807 720.483 23.9942V22.9077H721.306V35.1693H720.483V34.0052C720.483 32.9705 720.099 32.091 719.33 31.3667C718.616 30.6424 717.711 30.2543 716.613 30.2026H702.613V53.4065H714.389C718.452 53.4065 721.554 52.5528 723.695 50.8455C725.836 49.1382 727.62 46.6031 729.047 43.2402H729.871L725.095 55.8122H690.919V55.0362H691.99Z" fill="white"/>
<path d="M9.91772 1.41112C6.35882 1.39301 1.5427 0.611786 0 0V9.75624L0.828993 9.7446V8.36194C0.828993 5.87211 2.91246 3.84662 5.52433 3.73926H21.1434V50.2854C21.0199 52.9305 18.71 55.0387 15.873 55.0387H14.8313L14.8176 55.8161H32.8468L32.8331 55.0387H31.7913C28.931 55.0387 26.606 52.8955 26.5182 50.2221L26.5168 3.73931L42.1263 3.73926C44.7396 3.84662 46.823 5.87211 46.823 8.36194V9.7446L47.6506 9.75624V0C46.1079 0.611786 41.2918 1.39301 37.7329 1.41112H9.91772Z" fill="white"/>
<path d="M111.261 55.8123L111.248 55.0362H110.205C107.324 55.0362 104.986 52.8594 104.932 50.1562V7.13715C104.984 4.4352 107.323 2.25838 110.205 2.25838H111.247L111.261 1.48492H93.2451L93.2589 2.25838H94.3006C97.1472 2.25838 99.464 4.38217 99.5724 7.04014V27.7917H65.8733V7.09058C65.9529 4.40933 68.282 2.25838 71.1464 2.25838H72.1882L72.2019 1.48492H54.1864L54.2001 2.25838H55.2418C58.1117 2.25838 60.4436 4.41838 60.515 7.1061V50.1575C60.4601 52.8607 58.1213 55.0362 55.2405 55.0362H54.1974L54.1865 55.8122L72.2019 55.8123L72.1895 55.0362H71.1464C68.2655 55.0362 65.9268 52.8607 65.8733 50.1575V30.1199H99.5724V50.2169C99.4859 52.893 97.1609 55.0375 94.2992 55.0375H93.2575L93.2451 55.8136L111.261 55.8123Z" fill="white"/>
<path d="M160.074 43.276H159.25C156.708 49.1843 153.357 53.4383 144.632 53.4383H132.821V30.1853H146.824C148.991 30.2655 150.722 31.9444 150.722 34.0074V35.1507L151.526 35.1598V22.8775L150.722 22.8879V24.0312C150.722 26.1201 148.944 27.8158 146.739 27.8546H132.821V3.86171H149.61C152.182 4.00916 154.22 6.01913 154.22 8.4805V9.86316L155.052 9.8761V0.0771775C153.526 0.68379 148.785 1.45596 145.236 1.48829H121.17L121.184 2.25917H122.226C124.951 2.25917 127.191 4.20576 127.471 6.70464V50.1582C127.418 52.8615 125.078 55.0383 122.195 55.0383H121.155L121.141 55.8131H155.281L160.074 43.276Z" fill="white"/>
<path d="M204.974 18.8097C202.378 16.5449 201.658 13.6774 201.658 11.6545C201.658 6.92578 205.719 2.72994 211.787 2.72994C216.917 2.72994 221.072 5.75653 221.051 10.7207H221.844V1.19854H218.582C216.394 0.74972 213.681 0.403087 211.519 0.403087C202.131 0.403087 197.046 6.97623 197.046 13.517C197.046 16.5216 198.178 20.2687 201.509 23.1349L217.284 36.9408C219.342 38.7399 220.516 41.1392 220.516 44.1723C220.516 50.3742 215.493 54.257 209.481 54.5714C202.152 54.9555 196.778 49.8387 197.606 41.8415H196.883C195.628 45.3208 195.317 50.2643 195.93 52.6597C199.167 55.813 205.837 56.9008 209.872 56.9008C219.342 56.9008 225.292 50.9718 225.292 42.3874C225.292 39.2534 224.448 35.791 221.157 32.9273L204.974 18.8097Z" fill="white"/>
<path d="M275.292 1.48879V2.26484H276.635C278.975 2.26484 280.881 3.8247 280.984 6.00023V36.6141C280.965 47.3197 273.632 54.4555 262.63 54.4555C252.138 54.4555 245.145 46.9187 245.145 35.613V5.98988C245.246 3.81953 247.149 2.26484 249.487 2.26484H250.829V1.48879H234.102V2.26484H235.445C237.823 2.26484 239.753 3.87514 239.798 6.10758V36.7538C239.798 48.8408 248.932 56.9 262.637 56.9C275.954 56.9 284.834 48.7864 284.834 36.618V5.92909C284.977 3.79107 286.867 2.26484 289.182 2.26484H290.525V1.48879H275.292Z" fill="white"/>
<path d="M308.733 18.8097C306.138 16.5449 305.417 13.6774 305.417 11.6545C305.417 6.92578 309.479 2.72994 315.546 2.72994C320.677 2.72994 324.831 5.75653 324.811 10.7207H325.604V1.19854H322.342C320.154 0.74972 317.44 0.403087 315.279 0.403087C305.891 0.403087 300.806 6.97623 300.806 13.517C300.806 16.5216 301.938 20.2687 305.269 23.1349L321.043 36.9408C323.102 38.7399 324.276 41.1392 324.276 44.1723C324.276 50.3742 319.252 54.257 313.241 54.5714C305.911 54.9555 300.538 49.8387 301.366 41.8415H300.642C299.388 45.3208 299.076 50.2643 299.69 52.6597C302.926 55.813 309.597 56.9008 313.632 56.9008C323.102 56.9008 329.052 50.9718 329.052 42.3874C329.052 39.2534 328.208 35.791 324.916 32.9273L308.733 18.8097Z" fill="white"/>
<path d="M345.31 1.41112C341.751 1.39301 336.935 0.611786 335.392 0V9.75624L336.221 9.7446V8.36194C336.221 5.87211 338.304 3.84662 340.916 3.73926H356.535V50.2854C356.412 52.9305 354.102 55.0387 351.265 55.0387H350.223L350.21 55.8161H368.237L368.224 55.0387H367.183C364.323 55.0387 361.998 52.8955 361.91 50.2221V3.73926H377.52C380.13 3.84662 382.215 5.87211 382.215 8.36194V9.7446L383.043 9.75624V0C381.5 0.611786 376.684 1.39301 373.126 1.41112H345.31Z" fill="white"/>
<path d="M461.9 55.0361H460.858C457.976 55.0361 455.639 52.8593 455.584 50.1574V7.08921C455.665 4.40925 457.993 2.2583 460.857 2.2583H461.899L461.913 1.48225H443.898L443.911 2.2583H444.953C447.822 2.2583 450.154 4.41701 450.226 7.10602V50.1574C450.172 52.8593 447.833 55.0361 444.95 55.0361H443.909L443.896 55.8122H461.914L461.9 55.0361Z" fill="white"/>
<path d="M515.396 1.48748L515.408 2.26353H516.927C519.707 2.26353 521.958 4.36146 522.01 6.9664V45.4546L477.165 0.325999H476.352C476.352 0.325999 477.11 4.72361 477.11 10.0214V50.3398C477.056 52.9435 474.804 55.0388 472.027 55.0388H470.507L470.494 55.8148H487.458L487.446 55.0388H485.925C483.169 55.0388 480.929 52.9732 480.843 50.3954V11.7559L525.755 56.9H526.503C526.503 56.9 525.751 51.9993 525.751 47.0002V6.90302C525.839 4.32783 528.078 2.26483 530.834 2.26483H532.353L532.365 1.48748H515.396Z" fill="white"/>
<path d="M564.407 0.402436H563.665C563.665 2.10845 560.614 8.39575 560.614 8.39575L541.94 50.155C540.275 53.6058 537.23 55.0363 534.726 55.0363H533.985V55.8124H550.561V55.0428H549.837C547.721 55.0428 545.526 53.2954 546.689 50.2183L552.205 36.9544H574.386L579.652 50.1718C580.855 53.2773 578.65 55.0428 576.523 55.0428H575.8V55.8124H594.344V55.0363H593.656C591.133 55.0363 588.086 53.6045 586.422 50.1498L564.407 0.402436ZM553.173 34.6262L563.532 9.71891L573.458 34.6262H553.173Z" fill="white"/>
<path d="M598.412 1.48879L598.426 2.25967H599.454C602.328 2.25967 604.741 4.40156 604.741 7.07764V50.2092C604.659 52.8891 602.331 55.0388 599.468 55.0388H598.426L598.412 55.8148H618.477C630.749 55.8148 637.666 49.9945 637.666 41.2303C637.672 33.5422 632.32 27.4903 623.554 26.259C628.203 25.007 632.65 21.0491 632.681 14.4669C632.65 6.69091 626.309 1.49138 614.763 1.49138L598.412 1.48879ZM610.112 52.9849V3.98379H614.464C622.273 3.97474 626.473 8.0102 626.505 15.0257C626.473 25.007 617.909 26.4026 612.887 26.3858L612.906 27.1165C620.873 27.101 631.497 29.0411 631.491 40.6728C631.497 48.52 626.638 53.0211 618.186 52.9849H610.112Z" fill="white"/>
<path d="M683.935 43.276C681.392 49.1843 678.042 53.4383 669.317 53.4383H657.505V7.14828C657.56 4.44634 659.897 2.26822 662.781 2.26822H663.823L663.835 1.49217H645.819L645.832 2.26822H646.873C649.756 2.26822 652.094 4.44634 652.149 7.14828V50.1582C652.097 52.8615 649.758 55.0383 646.875 55.0383H645.833L645.819 55.8131H679.96L684.76 43.2773L683.935 43.276Z" fill="white"/>
<path d="M729.803 43.276H728.978C726.437 49.1843 723.086 53.4383 714.359 53.4383H702.55V30.1853H716.553C718.718 30.2655 720.451 31.9444 720.451 34.0074V35.1507L721.253 35.1598V22.8775L720.451 22.8879V24.0312C720.451 26.1201 718.673 27.8158 716.466 27.8546H702.55V3.86171H719.339C721.911 4.00916 723.949 6.01913 723.949 8.4805V9.86316L724.781 9.8761V0.0771775C723.255 0.68379 718.513 1.45596 714.963 1.48829H690.898L690.911 2.25917H691.953C694.679 2.25917 696.919 4.20576 697.2 6.70464V50.1582C697.145 52.8615 694.807 55.0383 691.924 55.0383H690.884L690.87 55.8131H725.009L729.803 43.276Z" fill="white"/>
<path d="M13.373 111.687H1.31688L1.36629 111.222H1.95921C2.81566 111.222 3.54034 110.942 4.13326 110.384C4.75912 109.825 5.08853 109.142 5.12147 108.335V82.4458C5.12147 81.6388 4.80853 80.9558 4.18267 80.3971C3.55681 79.8383 2.81566 79.5589 1.95921 79.5589H1.36629L1.31688 79.0933H11.1495C14.5423 79.0933 17.1776 79.8073 19.0551 81.2352C20.9327 82.6321 21.8715 84.5101 21.8715 86.8693C21.8715 88.7318 21.3445 90.284 20.2904 91.5256C19.2363 92.7363 17.9516 93.5434 16.4364 93.9469C19.0387 94.3194 21.0974 95.3283 22.6127 96.9735C24.1279 98.6187 24.8855 100.699 24.8855 103.213C24.8855 105.696 23.8644 107.73 21.8221 109.313C19.8128 110.896 16.9964 111.687 13.373 111.687ZM8.33313 110.011H13.1753C13.2083 110.011 13.2412 110.011 13.2741 110.011C15.7776 110.011 17.7211 109.375 19.1045 108.102C20.488 106.798 21.1798 104.967 21.1798 102.608C21.1798 101.273 20.9327 100.109 20.4386 99.1154C19.9775 98.091 19.3845 97.2839 18.6599 96.6941C16.7493 95.2041 13.8835 94.4591 10.0625 94.4591C10.0625 94.4591 10.046 94.4591 10.0131 94.4591V94.04C10.046 94.04 10.1942 94.04 10.4578 94.04C10.7542 94.04 11.166 94.009 11.693 93.9469C12.2201 93.8848 12.813 93.7762 13.4718 93.621C14.1306 93.4657 14.7235 93.2174 15.2506 92.876C15.7776 92.5345 16.2717 92.1309 16.7329 91.6653C17.6881 90.6409 18.1658 89.1199 18.1658 87.1021C18.1658 85.0534 17.5399 83.4547 16.2882 82.3062C15.0694 81.1576 13.2906 80.5833 10.9519 80.5833H8.33313V110.011Z" fill="white"/>
<path d="M62.1902 80.5368H59.028V108.288C59.028 109.095 59.3245 109.794 59.9174 110.384C60.5432 110.942 61.3009 111.222 62.1902 111.222H62.7832L62.8326 111.687H52.0117V111.222H52.6541C53.5105 111.222 54.2352 110.942 54.8281 110.384C55.454 109.825 55.7834 109.142 55.8163 108.335V82.4924C55.7834 81.6853 55.454 81.0024 54.8281 80.4436C54.2352 79.8538 53.5105 79.5589 52.6541 79.5589H52.0117V79.0933H65.3525C68.35 79.0933 70.7053 79.8849 72.4181 81.468C74.131 83.0201 74.9875 85.0534 74.9875 87.5678C74.9875 90.0511 74.164 92.2086 72.517 94.04C70.9029 95.8405 68.9265 96.7407 66.5877 96.7407C67.0818 96.958 67.6583 97.3926 68.3171 98.0444C69.0088 98.6653 69.6182 99.3172 70.1453 100C72.9781 103.818 74.8228 106.177 75.6792 107.078C76.5357 107.947 77.1451 108.552 77.5074 108.894C77.8697 109.204 78.265 109.514 78.6932 109.825C79.1215 110.135 79.5497 110.384 79.9779 110.57C80.9332 111.004 81.9543 111.222 83.0413 111.222V111.687H80.3238C78.9074 111.687 77.5897 111.455 76.371 110.989C75.1522 110.492 74.2298 109.996 73.604 109.499C73.0111 108.971 72.484 108.475 72.0229 108.009C71.5946 107.512 70.3759 105.898 68.3665 103.166C66.3572 100.435 65.1878 98.8826 64.8584 98.5101C64.529 98.1065 64.1831 97.7185 63.8208 97.346C62.7667 96.2906 61.7126 95.7629 60.6585 95.7629V95.2972C60.922 95.3283 61.2679 95.3438 61.6961 95.3438C62.1244 95.3438 62.6514 95.3283 63.2773 95.2972C67.3618 95.2041 69.9312 93.5899 70.9853 90.4547C71.1829 89.8338 71.2817 89.2596 71.2817 88.7318C71.2817 88.1731 71.2817 87.8161 71.2817 87.6609C71.2158 85.5811 70.6394 83.9048 69.5524 82.6321C68.4653 81.3594 66.9995 80.6765 65.1548 80.5833C64.3643 80.5523 63.3761 80.5368 62.1902 80.5368Z" fill="white"/>
<path d="M138.628 111.222H139.023V111.687H127.906V111.222H128.35C129.042 111.222 129.553 111.02 129.882 110.616C130.245 110.182 130.426 109.778 130.426 109.406C130.426 109.033 130.36 108.661 130.228 108.288L127.066 100.373H113.725L110.415 108.335C110.283 108.707 110.217 109.08 110.217 109.452C110.217 109.794 110.382 110.182 110.711 110.616C111.073 111.02 111.6 111.222 112.292 111.222H112.737V111.687H102.805V111.222H103.25C104.074 111.222 104.881 110.973 105.671 110.477C106.462 109.98 107.104 109.251 107.598 108.288L118.765 83.2374C119.984 80.723 120.593 79.1244 120.593 78.4414H121.038L134.28 108.288C134.741 109.251 135.367 109.98 136.157 110.477C136.948 110.973 137.771 111.222 138.628 111.222ZM114.318 98.9757H126.473L120.544 84.029L114.318 98.9757Z" fill="white"/>
<path d="M199.106 79.5589C198.282 79.5589 197.574 79.8383 196.981 80.3971C196.388 80.9248 196.075 81.5767 196.042 82.3527V106.379C196.042 108.18 196.158 109.887 196.388 111.501L196.487 112.339H196.042L169.114 85.2396V108.428C169.147 109.514 169.657 110.322 170.646 110.849C171.107 111.098 171.601 111.222 172.128 111.222H173.067V111.687H162.888V111.222H163.827C164.651 111.222 165.359 110.958 165.952 110.43C166.545 109.871 166.841 109.189 166.841 108.381V84.2152C166.841 82.3217 166.726 80.6299 166.495 79.1399L166.396 78.3949H166.89L193.819 105.495V82.3993C193.786 81.5922 193.473 80.9248 192.88 80.3971C192.287 79.8383 191.579 79.5589 190.756 79.5589H189.817V79.0933H199.995V79.5589H199.106Z" fill="white"/>
<path d="M243.674 79.0933C248.944 79.0933 253.21 80.5989 256.471 83.6099C259.765 86.59 261.412 90.5168 261.412 95.3904C261.412 100.264 259.765 104.206 256.471 107.217C253.21 110.197 248.944 111.687 243.674 111.687H226.924V111.222H227.566C228.423 111.222 229.147 110.942 229.74 110.384C230.366 109.794 230.695 109.095 230.728 108.288V82.213C230.728 81.468 230.399 80.8472 229.74 80.3505C229.114 79.8228 228.39 79.5589 227.566 79.5589H226.973L226.924 79.0933H243.674ZM233.94 80.4902V110.291H243.674C246.441 110.291 248.878 109.67 250.987 108.428C253.128 107.186 254.775 105.448 255.928 103.213C257.113 100.947 257.706 98.3393 257.706 95.3904C257.706 90.9203 256.405 87.3194 253.803 84.5877C251.234 81.856 247.857 80.4902 243.674 80.4902H233.94Z" fill="white"/>
<path d="M289.082 109.778C288.983 109.344 288.934 108.506 288.934 107.264C288.934 106.022 289.181 104.703 289.675 103.306H290.119C290.087 103.648 290.07 103.989 290.07 104.33C290.07 106.224 290.679 107.807 291.898 109.08C293.117 110.322 294.731 110.942 296.74 110.942C298.816 110.942 300.512 110.353 301.83 109.173C303.18 107.993 303.855 106.519 303.855 104.75C303.855 102.949 303.213 101.49 301.928 100.373L292.442 92.0844C290.663 90.5323 289.774 88.6543 289.774 86.4503C289.774 84.2463 290.548 82.3682 292.096 80.8161C293.677 79.233 295.802 78.4414 298.47 78.4414C299.722 78.4414 301.138 78.5966 302.719 78.9071H304.646V84.6343H304.201C304.201 83.1753 303.658 82.0113 302.571 81.1421C301.517 80.2729 300.15 79.8383 298.47 79.8383C296.79 79.8383 295.373 80.366 294.22 81.4215C293.101 82.4769 292.541 83.7962 292.541 85.3793C292.541 86.9625 293.199 88.3283 294.517 89.4769L304.251 97.9513C305.898 99.3792 306.721 101.335 306.721 103.818C306.721 106.302 305.881 108.35 304.201 109.965C302.521 111.548 300.281 112.339 297.482 112.339C296.032 112.339 294.484 112.122 292.837 111.687C291.223 111.284 289.971 110.647 289.082 109.778Z" fill="white"/>
<path d="M382.615 79.5589C381.429 79.5589 380.524 80.0401 379.898 81.0024C379.634 81.437 379.486 81.9337 379.453 82.4924V111.687C379.453 114.295 378.58 116.499 376.834 118.299C375.121 120.1 372.997 121 370.46 121V120.581C372.074 120.053 373.442 118.905 374.561 117.135C375.681 115.397 376.241 113.534 376.241 111.548V82.4924C376.208 81.6853 375.879 81.0024 375.253 80.4436C374.66 79.8538 373.936 79.5589 373.079 79.5589H372.437V79.0933H383.258V79.5589H382.615Z" fill="white"/>
<path d="M416.066 83.1443C419.36 80.009 423.642 78.4414 428.913 78.4414C434.183 78.4414 438.465 80.009 441.759 83.1443C445.053 86.2485 446.7 90.3305 446.7 95.3904C446.7 100.45 445.053 104.548 441.759 107.683C438.465 110.787 434.183 112.339 428.913 112.339C423.642 112.339 419.36 110.787 416.066 107.683C412.805 104.548 411.174 100.45 411.174 95.3904C411.174 90.3305 412.805 86.2485 416.066 83.1443ZM418.784 106.659C421.353 109.514 424.729 110.942 428.913 110.942C433.129 110.942 436.505 109.514 439.042 106.659C441.611 103.803 442.896 100.047 442.896 95.3904C442.896 92.3172 442.319 89.601 441.166 87.2418C440.014 84.8826 438.367 83.0667 436.225 81.794C434.117 80.4902 431.68 79.8383 428.913 79.8383C424.729 79.8383 421.353 81.2663 418.784 84.1221C416.247 86.978 414.979 90.7341 414.979 95.3904C414.979 100.047 416.247 103.803 418.784 106.659Z" fill="white"/>
<path d="M506.936 79.5589H506.146C505.454 79.5589 504.845 79.7762 504.318 80.2108C503.823 80.6144 503.56 81.1266 503.527 81.7474V100.186C503.527 103.818 502.308 106.752 499.871 108.987C497.433 111.222 494.189 112.339 490.137 112.339C486.085 112.339 482.791 111.237 480.255 109.033C477.751 106.798 476.5 103.865 476.5 100.233V81.8871C476.5 80.9558 476.071 80.2729 475.215 79.8383C474.82 79.6521 474.375 79.5589 473.881 79.5589H473.09V79.0933H483.121V79.5589H482.33C481.605 79.5589 480.996 79.7762 480.502 80.2108C480.008 80.6144 479.744 81.1421 479.711 81.794V99.581C479.711 102.965 480.667 105.696 482.577 107.776C484.521 109.856 487.106 110.896 490.334 110.896C493.563 110.896 496.181 109.918 498.191 107.962C500.2 105.976 501.205 103.384 501.205 100.186V81.794C501.172 81.1421 500.908 80.6144 500.414 80.2108C499.92 79.7762 499.311 79.5589 498.586 79.5589H497.795V79.0933H506.936V79.5589Z" fill="white"/>
<path d="M544.142 80.5368H540.98V108.288C540.98 109.095 541.276 109.794 541.869 110.384C542.495 110.942 543.253 111.222 544.142 111.222H544.735L544.785 111.687H533.964V111.222H534.606C535.462 111.222 536.187 110.942 536.78 110.384C537.406 109.825 537.735 109.142 537.768 108.335V82.4924C537.735 81.6853 537.406 81.0024 536.78 80.4436C536.187 79.8538 535.462 79.5589 534.606 79.5589H533.964V79.0933H547.304C550.302 79.0933 552.657 79.8849 554.37 81.468C556.083 83.0201 556.939 85.0534 556.939 87.5678C556.939 90.0511 556.116 92.2086 554.469 94.04C552.855 95.8405 550.878 96.7407 548.54 96.7407C549.034 96.958 549.61 97.3926 550.269 98.0444C550.961 98.6653 551.57 99.3172 552.097 100C554.93 103.818 556.775 106.177 557.631 107.078C558.488 107.947 559.097 108.552 559.459 108.894C559.822 109.204 560.217 109.514 560.645 109.825C561.073 110.135 561.502 110.384 561.93 110.57C562.885 111.004 563.906 111.222 564.993 111.222V111.687H562.276C560.859 111.687 559.542 111.455 558.323 110.989C557.104 110.492 556.182 109.996 555.556 109.499C554.963 108.971 554.436 108.475 553.975 108.009C553.547 107.512 552.328 105.898 550.318 103.166C548.309 100.435 547.14 98.8826 546.81 98.5101C546.481 98.1065 546.135 97.7185 545.773 97.346C544.719 96.2906 543.664 95.7629 542.61 95.7629V95.2972C542.874 95.3283 543.22 95.3438 543.648 95.3438C544.076 95.3438 544.603 95.3283 545.229 95.2972C549.314 95.2041 551.883 93.5899 552.937 90.4547C553.135 89.8338 553.234 89.2596 553.234 88.7318C553.234 88.1731 553.234 87.8161 553.234 87.6609C553.168 85.5811 552.591 83.9048 551.504 82.6321C550.417 81.3594 548.951 80.6765 547.107 80.5833C546.316 80.5523 545.328 80.5368 544.142 80.5368Z" fill="white"/>
<path d="M623.638 79.5589C622.815 79.5589 622.107 79.8383 621.514 80.3971C620.921 80.9248 620.608 81.5767 620.575 82.3527V106.379C620.575 108.18 620.69 109.887 620.921 111.501L621.02 112.339H620.575L593.646 85.2396V108.428C593.679 109.514 594.19 110.322 595.178 110.849C595.639 111.098 596.133 111.222 596.66 111.222H597.599V111.687H587.421V111.222H588.359C589.183 111.222 589.891 110.958 590.484 110.43C591.077 109.871 591.373 109.189 591.373 108.381V84.2152C591.373 82.3217 591.258 80.6299 591.027 79.1399L590.929 78.3949H591.423L618.351 105.495V82.3993C618.318 81.5922 618.005 80.9248 617.413 80.3971C616.82 79.8383 616.111 79.5589 615.288 79.5589H614.349V79.0933H624.528V79.5589H623.638Z" fill="white"/>
<path d="M683.627 111.222H684.022V111.687H672.905V111.222H673.35C674.042 111.222 674.552 111.02 674.882 110.616C675.244 110.182 675.425 109.778 675.425 109.406C675.425 109.033 675.359 108.661 675.227 108.288L672.065 100.373H658.724L655.414 108.335C655.282 108.707 655.216 109.08 655.216 109.452C655.216 109.794 655.381 110.182 655.71 110.616C656.073 111.02 656.6 111.222 657.292 111.222H657.736V111.687H647.805V111.222H648.249C649.073 111.222 649.88 110.973 650.671 110.477C651.461 109.98 652.103 109.251 652.598 108.288L663.764 83.2374C664.983 80.723 665.592 79.1244 665.592 78.4414H666.037L679.279 108.288C679.74 109.251 680.366 109.98 681.157 110.477C681.947 110.973 682.771 111.222 683.627 111.222ZM659.317 98.9757H671.472L665.543 84.029L659.317 98.9757Z" fill="white"/>
<path d="M709.271 111.222C710.128 111.222 710.852 110.942 711.445 110.384C712.071 109.794 712.4 109.095 712.433 108.288V82.4924C712.4 81.6853 712.071 81.0024 711.445 80.4436C710.852 79.8538 710.128 79.5589 709.271 79.5589H708.629V79.0933H719.45V79.5589H718.807C717.621 79.5589 716.716 80.0401 716.09 81.0024C715.793 81.468 715.645 81.9647 715.645 82.4924V110.244H722.711C725.148 110.244 727.009 109.732 728.294 108.707C729.579 107.683 730.649 106.162 731.506 104.144H732L729.134 111.687H708.629V111.222H709.271Z" fill="white"/>
<path d="M1.33498 79.0931L1.34321 79.5561H1.96084C3.68471 79.5561 5.1327 80.8418 5.1327 82.4469V108.327C5.08329 109.933 3.68608 111.224 1.9677 111.224H1.34321L1.33498 111.69L13.373 111.687C20.7365 111.687 24.8872 108.196 24.8872 102.938C24.8913 98.3262 21.6796 94.6942 16.4202 93.9557C19.2091 93.2042 21.8773 90.8295 21.8965 86.8807C21.8773 82.2154 18.0727 79.0944 11.1456 79.0944L1.33498 79.0931ZM8.35534 109.991V80.5908H10.9672C15.6516 80.5857 18.1715 83.0056 18.1907 87.2157C18.1715 93.2042 13.0328 94.0424 10.0202 94.032L10.0312 94.4705C14.813 94.4614 21.1855 95.6255 21.1814 102.603C21.1855 107.313 18.2703 110.013 13.2003 109.991H8.35534Z" fill="white"/>
<path d="M52.0117 79.0933L52.0201 79.5561H52.6459C54.3753 79.5561 55.778 80.8625 55.8109 82.4844V108.318C55.767 109.929 54.3698 111.223 52.6473 111.223H52.0228L52.0146 111.688H62.8093L62.8011 111.223H62.1766C60.4473 111.223 59.0432 109.918 59.0116 108.296V80.543C59.6526 80.565 62.6433 80.4499 65.1632 80.5792C68.8415 80.7693 71.1706 83.4674 71.2914 87.6788C71.3216 88.6993 71.1954 89.8142 70.9771 90.4661C69.5758 94.6593 65.8289 95.2349 63.265 95.3009C61.7786 95.3397 60.6545 95.3164 60.6545 95.3164V95.7471C62.4594 95.7471 63.9019 97.36 65.1934 98.8888C65.5722 99.3389 71.1405 106.973 71.7018 107.605C73.2555 109.353 75.7259 111.687 80.3238 111.687L83.0332 111.687V111.22C80.129 111.198 78.3008 109.744 76.3134 107.698C74.4001 105.73 70.1413 99.9986 70.1413 99.9986C69.1833 98.7233 67.6639 97.1828 66.6043 96.721C71.3559 96.721 74.9986 92.3506 74.9986 87.843C74.9986 82.4184 71.3285 79.0931 65.3402 79.0931L52.0117 79.0933Z" fill="white"/>
<path d="M121.009 78.4413H120.563C120.563 79.4657 118.733 83.2373 118.733 83.2373L107.528 108.293C106.529 110.364 104.704 111.222 103.201 111.222H102.756V111.687H112.701V111.226H112.266C110.998 111.226 109.68 110.177 110.378 108.331L113.688 100.372H126.996L130.157 108.302C130.877 110.166 129.556 111.226 128.279 111.226H127.844V111.687H138.971V111.222H138.558C137.044 111.222 135.217 110.363 134.218 108.291L121.009 78.4413ZM114.269 98.9756L120.485 84.0315L126.44 98.9756H114.269Z" fill="white"/>
<path d="M189.828 79.0925L189.836 79.5581H190.748C192.414 79.5581 193.767 80.8166 193.797 82.3803V105.473L166.89 78.3949L166.402 78.3953C166.402 78.3953 166.858 81.0339 166.858 84.2131V108.404C166.825 109.966 165.473 111.224 163.808 111.224H162.895L162.888 111.687H173.067L173.059 111.224H172.146C170.493 111.224 169.148 109.984 169.098 108.438V85.2543L196.042 112.339L196.493 112.341C196.493 112.341 196.043 109.4 196.043 106.399V82.3415C196.095 80.7959 197.437 79.5581 199.091 79.5581H200.004L200.011 79.0925H189.828Z" fill="white"/>
<path d="M226.941 79.095L226.949 79.5555H227.573C229.208 79.5555 230.72 80.7235 230.72 82.2212V108.303C230.686 109.921 229.283 111.224 227.555 111.224H226.931L226.923 111.69H243.651C254.204 111.69 261.396 105.175 261.396 95.4089C261.396 85.6216 254.204 79.0989 243.651 79.0989L226.941 79.095ZM233.939 80.4971H243.651C252.07 80.4971 257.69 86.4623 257.69 95.4089C257.69 104.328 252.119 110.274 243.651 110.274H233.939V80.4971Z" fill="white"/>
<path d="M294.53 89.486C292.973 88.1267 292.541 86.4064 292.541 85.1932C292.541 82.3554 294.977 79.8384 298.618 79.8384C301.697 79.8384 304.189 81.6544 304.177 84.6331H304.652V78.9201H302.695C301.383 78.6498 299.755 78.4416 298.458 78.4416C292.825 78.4416 289.774 82.3865 289.774 86.3107C289.774 88.1124 290.453 90.3617 292.452 92.0806L301.917 100.365C303.15 101.445 303.854 102.883 303.854 104.704C303.854 108.426 300.842 110.754 297.235 110.944C292.837 111.174 289.613 108.103 290.11 103.305L289.675 103.306C288.923 105.394 288.736 108.358 289.104 109.797C291.046 111.689 295.048 112.341 297.47 112.341C303.152 112.341 306.722 108.784 306.722 103.633C306.722 101.753 306.215 99.6756 304.24 97.9566L294.53 89.486Z" fill="white"/>
<path d="M372.455 79.0905L372.463 79.5562H373.088C374.817 79.5562 376.22 80.8625 376.254 82.4844V111.551C376.254 115.552 373.711 119.51 370.474 120.582V121C375.514 121 379.474 116.902 379.474 111.683V82.4728C379.514 80.856 380.914 79.5549 382.639 79.5549H383.265L383.272 79.0892L372.455 79.0905Z" fill="white"/>
<path d="M428.946 78.4413C418.438 78.4413 411.186 85.2214 411.186 95.3902C411.186 105.559 418.438 112.339 428.946 112.339C439.453 112.339 446.705 105.559 446.705 95.3902C446.705 85.2214 439.453 78.4413 428.946 78.4413ZM428.946 110.946C420.563 110.946 414.973 104.724 414.973 95.3902C414.973 86.057 420.563 79.8356 428.946 79.8356C437.328 79.8356 442.918 86.057 442.918 95.3902C442.918 104.724 437.328 110.946 428.946 110.946Z" fill="white"/>
<path d="M497.813 79.0931V79.5587H498.618C500.021 79.5587 501.166 80.4951 501.228 81.8002V100.168C501.215 106.591 496.815 110.874 490.216 110.874C483.92 110.874 479.723 106.352 479.723 99.5679V81.7937C479.783 80.4913 480.927 79.5589 482.33 79.5589L483.135 79.5587V79.0931H473.098V79.5587H473.904C475.331 79.5587 476.49 80.5249 476.516 81.8649V100.252C476.516 107.504 481.997 112.34 490.219 112.34C498.209 112.34 503.537 107.472 503.537 100.171V81.7575C503.623 80.4744 504.758 79.5589 506.146 79.5589L506.951 79.5587V79.0931H497.813Z" fill="white"/>
<path d="M533.971 79.0931L533.979 79.5561H534.604C536.333 79.5561 537.736 80.8625 537.77 82.4844V108.318C537.725 109.929 536.327 111.222 534.606 111.222L533.981 111.223L533.972 111.688H544.767L544.759 111.223H544.133C542.405 111.223 541.001 109.918 540.969 108.296V80.543C541.61 80.565 544.601 80.4499 547.119 80.5792C550.799 80.7693 553.128 83.4674 553.249 87.6788C553.279 88.6993 553.154 89.8142 552.935 90.4661C551.534 94.6593 547.785 95.2349 545.223 95.3009C543.736 95.3397 542.612 95.3164 542.612 95.3164V95.7471C544.417 95.7471 545.858 97.36 547.151 98.8888C547.53 99.3389 553.098 106.973 553.659 107.605C555.213 109.353 557.681 111.687 562.28 111.687L564.993 111.687L564.991 111.22C562.087 111.198 560.259 109.744 558.271 107.698C556.359 105.73 552.097 100 552.097 100C551.139 98.7248 549.622 97.1828 548.562 96.721C553.314 96.721 556.956 92.3506 556.956 87.843C556.956 82.4184 553.286 79.0931 547.299 79.0931H533.971Z" fill="white"/>
<path d="M614.372 79.0925L614.381 79.5581H615.292C616.96 79.5581 618.31 80.8166 618.343 82.3803V105.473L591.434 78.3953H590.948C590.948 78.3953 591.402 81.0339 591.402 84.2131V108.404C591.369 109.966 590.019 111.224 588.352 111.224H587.44L587.433 111.689H597.61L597.603 111.224H596.69C595.037 111.224 593.694 109.984 593.642 108.438V85.2543L620.589 112.341H621.036C621.036 112.341 620.586 109.4 620.586 106.399V82.3415C620.638 80.7959 621.983 79.5581 623.635 79.5581H624.548L624.555 79.0925H614.372Z" fill="white"/>
<path d="M666.015 78.4413H665.571C665.571 79.4657 663.741 83.2373 663.741 83.2373L652.536 108.293C651.537 110.364 649.71 111.222 648.207 111.222H647.763V111.687H657.708V111.226H657.274C656.004 111.226 654.687 110.177 655.385 108.331L658.695 100.372H672.002L675.163 108.302C675.885 110.166 674.562 111.226 673.286 111.226H672.851V111.687H683.977V111.222H683.564C682.052 111.222 680.225 110.363 679.224 108.291L666.015 78.4413ZM659.276 98.9756L665.491 84.0315L671.446 98.9756H659.276Z" fill="white"/>
<path d="M731.506 104.166C729.981 107.711 727.97 110.263 722.734 110.263H715.648V82.4894C715.681 80.8675 717.084 79.5611 718.813 79.5611H719.437L719.446 79.0955H708.636L708.644 79.5611H709.269C710.999 79.5611 712.402 80.8675 712.434 82.4894V108.294C712.402 109.916 711 111.222 709.271 111.222L708.645 111.223L708.637 111.688H729.12L732 104.166H731.506Z" fill="white"/>
<path d="M428.736 32.4586C429.583 34.1103 430.391 35.6844 431.2 37.2597C432.642 40.0716 434.111 42.8719 435.519 45.6993C436.658 47.986 436.631 50.3155 435.464 52.5828C434.269 54.9071 432.29 56.1203 429.498 56.1139C423.57 56.0996 417.645 56.1087 411.718 56.1087H410.644V60.5464C407.738 58.0708 405.008 55.7452 402.201 53.3537C404.981 51.0424 407.722 48.7621 410.647 46.3305C410.647 47.5941 410.685 48.6625 410.634 49.7283C410.603 50.3879 410.788 50.6194 411.541 50.6156C417.576 50.5871 423.613 50.6013 429.649 50.5975C431.284 50.5962 431.967 49.5847 431.248 48.1658C429.145 44.0204 427.026 39.8828 424.879 35.7594C424.604 35.2278 424.652 34.9639 425.19 34.6522C426.356 33.9771 427.482 33.2398 428.736 32.4586Z" fill="white"/>
<path d="M400.199 20.3935C398.796 19.5049 397.442 18.6461 396.043 17.7588C397.026 15.8471 397.983 13.9937 398.936 12.1376C400.38 9.32571 401.784 6.49572 403.279 3.70841C404.444 1.53159 406.29 0.189021 408.982 0.348111C411.437 0.492974 413.032 1.9015 414.074 3.90759C415.605 6.85141 417.11 9.80686 418.626 12.7597C419.892 15.2237 421.155 17.6876 422.419 20.1516C422.502 20.312 422.607 20.4607 422.732 20.6664C423.83 19.9925 424.9 19.338 426.124 18.5879C425.643 22.4992 425.18 26.2514 424.698 30.1769C421.403 28.6571 418.199 27.1787 414.849 25.6318C416.111 24.8312 417.274 24.0913 418.496 23.3166C417.747 21.8499 417.026 20.4336 416.3 19.0199C414.251 15.0232 412.196 11.0266 410.151 7.02602C409.83 6.39871 409.49 5.82185 408.617 5.82314C407.745 5.82443 407.412 6.40259 407.09 7.0299C404.922 11.262 402.744 15.4901 400.57 19.7183C400.464 19.9227 400.347 20.1231 400.199 20.3935Z" fill="white"/>
<path d="M389.966 29.5294C388.732 28.7391 387.564 27.9903 386.286 27.1728C389.594 25.6531 392.785 24.185 396.116 22.6549C396.585 26.5352 397.044 30.3249 397.523 34.2918C396.33 33.5442 395.31 32.9052 394.214 32.2184C394.067 32.4603 393.924 32.666 393.811 32.8845C391.221 37.9276 388.636 42.9719 386.049 48.0162C385.991 48.1326 385.926 48.2477 385.876 48.3654C385.361 49.5696 386.06 50.5914 387.425 50.5966C390.745 50.6056 394.067 50.5992 397.387 50.5992H398.365C398.365 52.3582 398.379 54.0332 398.342 55.7069C398.339 55.844 397.993 56.091 397.807 56.091C394.104 56.0897 390.399 56.0858 386.698 56.0225C385.161 55.9966 383.925 55.2684 382.922 54.2065C380.682 51.8318 380.285 48.4159 381.858 45.366C384.444 40.3501 387.02 35.3304 389.598 30.3106C389.716 30.0817 389.819 29.8424 389.966 29.5294Z" fill="white"/>
</svg>
